<?xml version="1.0" standalone="no"?><!DOCTYPE svg PUBLIC "-//W3C//DTD SVG 1.1//EN" "http://www.w3.org/Graphics/SVG/1.1/DTD/svg11.dtd"><svg t="1704185357508" class="icon" viewBox="0 0 1024 1024" version="1.1" xmlns="http://www.w3.org/2000/svg" p-id="4333" xmlns:xlink="http://www.w3.org/1999/xlink" width="12" height="12"><path d="M888.38144 143.03232h-753.664c-18.14528 0-32.768 14.336-32.768 32.07168V848.2816c0 17.73568 14.66368 32.07168 32.768 32.07168h753.664c18.14528 0 32.768-14.336 32.768-32.07168V175.104c0.04096-17.73568-14.62272-32.07168-32.768-32.07168z m-31.9488 673.13664H166.7072V207.21664h689.72544v608.95232z m-9.0112-7.94624" fill="#C0CBD8" p-id="4334"></path><path d="M275.0464 743.66976h473.088c18.14528 0 32.768-14.21312 32.768-31.78496v-248.34048c0-17.6128-14.62272-31.78496-32.768-31.78496H673.3824V329.5232c0-17.6128-14.62272-31.78496-32.768-31.78496h-258.048c-18.14528 0-32.768 14.21312-32.768 31.78496v102.1952H275.0464c-18.14528 0-32.768 14.21312-32.768 31.78496v248.34048c0 17.6128 14.62272 31.82592 32.768 31.82592z m29.98272-249.52832h109.44512V360.73472h194.19136v133.3248h109.44512v186.53184H305.02912v-186.44992z m10.97728 9.13408" fill="#C0CBD8" p-id="4335"></path><path d="M404.56192 533.17632h-24.576c-4.5056 0-8.192 3.60448-8.192 7.9872v92.9792c0 4.42368 3.6864 7.9872 8.192 7.9872h24.576c4.5056 0 8.192-3.60448 8.192-7.9872v-92.9792c0-4.38272-3.6864-7.9872-8.192-7.9872z m77.53728 0h-24.576c-4.5056 0-8.192 3.60448-8.192 7.9872v92.9792c0 4.42368 3.6864 7.9872 8.192 7.9872h24.576c4.5056 0 8.192-3.60448 8.192-7.9872v-92.9792c0-4.38272-3.6864-7.9872-8.192-7.9872z m77.49632 0h-24.576c-4.5056 0-8.192 3.60448-8.192 7.9872v92.9792c0 4.42368 3.6864 7.9872 8.192 7.9872h24.576c4.5056 0 8.192-3.60448 8.192-7.9872v-92.9792c0-4.38272-3.6864-7.9872-8.192-7.9872z m77.49632 0h-24.576c-4.5056 0-8.192 3.60448-8.192 7.9872v92.9792c0 4.42368 3.6864 7.9872 8.192 7.9872h24.576c4.5056 0 8.192-3.60448 8.192-7.9872v-92.9792c0.04096-4.38272-3.56352-7.9872-8.192-7.9872z m0 0" fill="#C0CBD8" p-id="4336"></path></svg>