<?xml version="1.0" standalone="no"?><!DOCTYPE svg PUBLIC "-//W3C//DTD SVG 1.1//EN" "http://www.w3.org/Graphics/SVG/1.1/DTD/svg11.dtd"><svg t="1704179950904" class="icon" viewBox="0 0 1024 1024" version="1.1" xmlns="http://www.w3.org/2000/svg" p-id="8841" xmlns:xlink="http://www.w3.org/1999/xlink" width="12" height="12"><path d="M352 275.2h371.2v179.2c0 38.4-19.2 128-51.2 172.8 6.4 6.4 6.4 19.2 6.4 25.6 0 6.4-6.4 12.8-12.8 25.6s-19.2 12.8-32 12.8v128H576V1024H492.8v-204.8h-64v-134.4c-6.4 0-12.8-6.4-19.2-12.8-6.4-6.4-12.8-19.2-12.8-32 0-6.4 0-19.2 6.4-25.6-32-32-51.2-128-51.2-160V275.2z m326.4-44.8H403.2V0h275.2v230.4zM569.6 89.6h57.6V51.2h-57.6v38.4z m-70.4 0V44.8h-57.6v44.8h57.6z" fill="#040000" p-id="8842"></path></svg>