<?xml version="1.0" standalone="no"?><!DOCTYPE svg PUBLIC "-//W3C//DTD SVG 1.1//EN" "http://www.w3.org/Graphics/SVG/1.1/DTD/svg11.dtd"><svg t="1704179763356" class="icon" viewBox="0 0 1024 1024" version="1.1" xmlns="http://www.w3.org/2000/svg" p-id="4326" xmlns:xlink="http://www.w3.org/1999/xlink" width="12" height="12"><path d="M735.1 293.7L549.3 458.8l-97.1-97.1c-8.2-8.2-21.4-8.8-30.2-1.3L259.6 496.7c-9.5 7.9-10.7 22.1-2.8 31.5 4.4 5.3 10.8 8 17.2 8 5.1 0 10.2-1.7 14.4-5.3l146.7-123 97.5 97.5c8.4 8.4 21.9 8.8 30.7 0.9l201.6-179.2c9.3-8.2 10.1-22.4 1.9-31.6-8.3-9.2-22.5-10.1-31.7-1.8z" fill="#000000" p-id="4327"></path><path d="M937.6 243.2c12.4 0 22.4-10 22.4-22.4v-112c0-24.6-20.2-44.8-44.8-44.8H108.8C84.2 64 64 84.2 64 108.8v806.4c0 24.6 20.2 44.8 44.8 44.8h806.4c24.6 0 44.8-20.2 44.8-44.8V400c0-12.4-10-22.4-22.4-22.4-12.4 0-22.4 10-22.4 22.4v336H108.8V131.2c0-12.3 10.1-22.4 22.4-22.4h761.6c12.3 0 22.4 10.1 22.4 22.4v89.6c0 12.4 10 22.4 22.4 22.4z m-22.4 537.6v112c0 12.3-10.1 22.4-22.4 22.4H131.2c-12.3 0-22.4-10.1-22.4-22.4v-112h806.4z" fill="#000000" p-id="4328"></path></svg>