<?xml version="1.0" standalone="no"?><!DOCTYPE svg PUBLIC "-//W3C//DTD SVG 1.1//EN" "http://www.w3.org/Graphics/SVG/1.1/DTD/svg11.dtd"><svg t="1704180014533" class="icon" viewBox="0 0 1024 1024" version="1.1" xmlns="http://www.w3.org/2000/svg" p-id="11984" xmlns:xlink="http://www.w3.org/1999/xlink" width="12" height="12"><path d="M64 0H0v1024h1024V0z m896 960H64V320h896z m0-704H64V64h896z" fill="#606060" p-id="11985"></path><path d="M768 128h128v64h-128zM332.8 832l51.2-48L230.4 640 384 496 332.8 448 179.2 592 128 640l51.2 48L332.8 832zM691.2 832l153.6-144 51.2-48-51.2-48L691.2 448l-51.2 48L793.6 640 640 784l51.2 48zM576 448H512l-64 384h64l64-384z" fill="#606060" p-id="11986"></path></svg>