<?xml version="1.0" standalone="no"?><!DOCTYPE svg PUBLIC "-//W3C//DTD SVG 1.1//EN" "http://www.w3.org/Graphics/SVG/1.1/DTD/svg11.dtd"><svg t="1704185475614" class="icon" viewBox="0 0 1109 1024" version="1.1" xmlns="http://www.w3.org/2000/svg" p-id="7490" xmlns:xlink="http://www.w3.org/1999/xlink" width="12.99609375" height="12"><path d="M176.384 465.066667h705.365333c35.498667 0 64.853333 26.624 69.12 60.928l0.512 8.704v139.605333h37.12c38.4 0 69.632 31.232 69.632 69.632v176.384c0 38.4-31.146667 69.632-69.632 69.632H812.202667a69.632 69.632 0 0 1-69.632-69.632V743.936c0-38.4 31.146667-69.546667 69.632-69.546667h37.034666V567.125333H580.181333v107.093334h37.12c38.4 0 69.632 31.232 69.632 69.632v176.384c0 38.4-31.146667 69.632-69.632 69.632H440.917333a69.632 69.632 0 0 1-69.632-69.632V743.936c0-38.4 31.146667-69.546667 69.632-69.546667H477.866667V567.04l-269.141334 0.085333v107.093334h37.12c38.485333 0 69.632 31.232 69.632 69.632v176.384c0 38.4-31.146667 69.632-69.632 69.632H69.632A69.632 69.632 0 0 1 0 920.32V743.936c0-38.4 31.146667-69.546667 69.632-69.546667h37.034667V534.613333c0-35.498667 26.624-64.768 60.928-69.12l8.789333-0.512h705.365333zM213.504 776.533333H102.058667v111.36h111.445333V776.533333z m371.2 0H473.429333v111.36h111.445334V776.533333z m371.370667 0H844.629333v111.36h111.445334V776.533333zM482.986667 5.12c30.72-6.826667 61.610667-6.826667 92.330666 0l11.946667 1.706667 19.712 56.405333c3.413333 8.533333 11.946667 14.506667 21.333333 13.653333l61.610667-8.533333 7.68 7.68c8.533333 8.618667 15.36 18.858667 20.48 29.952 3.413333 5.12 6.826667 12.8 10.24 21.418667l5.205333 11.093333 4.266667 11.093333-40.106667 48.810667c-5.12 6.826667-5.12 16.213333 0 23.04l39.253334 47.018667-4.266667 10.24c-8.533333 23.978667-20.48 45.397333-36.693333 64.170666l-8.618667 7.68-61.525333-10.24a19.626667 19.626667 0 0 0-19.626667 11.946667l-21.418667 59.904-10.24 2.56c-30.805333 6.826667-63.317333 6.826667-94.122666 0l-11.946667-1.706667-20.48-58.197333a18.517333 18.517333 0 0 0-19.712-11.946667l-63.317333 10.24-7.68-7.68c-7.68-8.533333-14.506667-17.92-19.626667-28.16-6.826667-11.093333-12.8-23.978667-16.213333-37.632l-4.266667-10.24 41.813333-47.104a17.92 17.92 0 0 0 0-22.186666l-40.106666-48.725334 4.266666-10.24c8.533333-23.978667 21.333333-46.250667 37.546667-65.877333l8.533333-8.533333 60.757334 10.24h1.706666c8.533333 0 16.213333-4.266667 19.626667-11.946667L472.746667 6.826667z m46.165333 116.309333A87.893333 87.893333 0 0 0 441.173333 209.493333c0 48.725333 39.338667 88.064 88.064 88.064a88.490667 88.490667 0 0 0 88.064-88.064 87.893333 87.893333 0 0 0-88.064-88.064z" fill="#666666" p-id="7491"></path></svg>