<?xml version="1.0" standalone="no"?><!DOCTYPE svg PUBLIC "-//W3C//DTD SVG 1.1//EN" "http://www.w3.org/Graphics/SVG/1.1/DTD/svg11.dtd"><svg t="1704181899149" class="icon" viewBox="0 0 1024 1024" version="1.1" xmlns="http://www.w3.org/2000/svg" p-id="23496" xmlns:xlink="http://www.w3.org/1999/xlink" width="12" height="12"><path d="M512 53.333333V981.333333h21.333333V53.333333z" fill="#252B3A" p-id="23497"></path><path d="M85.333333 341.333333c198.165333 50.538667 311.296 63.424 437.290667 64 133.077333 0.597333 261.525333-25.450667 398.357333-75.306666l-7.296-20.010667c-134.656 49.045333-260.650667 74.624-390.976 74.026667-123.84-0.554667-235.498667-13.205333-432.106666-63.338667L85.333333 341.333333z" fill="#252B3A" p-id="23498"></path><path d="M693.546667 920.576c-17.834667 7.637333-40.021333 16.917333-58.666667 22.208a379.477333 379.477333 0 0 0 40.682667-35.712 458.368 458.368 0 0 1-15.850667-14.613333c-44.48 44.458667-84.8 62.805333-119.125333 66.517333l-1.365334 0.128-0.682666 0.064c-6.144 0.405333-12.352 0.448-18.538667 0.512-109.781333-1.877333-215.210667-115.178667-261.184-274.709333 100.885333 19.861333 184.149333 29.333333 263.850667 29.653333 15.104 0.042667 37.845333-0.917333 53.781333-1.621333-0.832-6.805333-1.258667-14.122667-1.792-21.290667-15.296 0.576-37.461333 1.621333-51.946667 1.578667-80.725333-0.32-165.632-10.261333-269.696-31.210667A627.562667 627.562667 0 0 1 234.666667 512c0-243.541333 138.005333-444.053333 284.010666-447.658667 6.613333 0.106667 13.12 0.618667 19.648 1.002667C674.837333 79.018667 789.333333 268.992 789.333333 512c0 9.216 0.661333 32 0.426667 42.005333 7.04 4.245333 13.994667 8.298667 20.906667 12.202667 0.576-14.336 0-41.216 0-54.208 0-193.749333-70.677333-357.056-171.328-429.376C824.661333 137.514667 960 308.842667 960 512c0 34.858667-8.341333 80.533333-16.106667 113.728 1.962667 0.554667 3.946667 1.237333 5.802667 1.749333l15.04 4.053334c8.170667-34.688 16.597333-82.346667 16.597333-119.530667 0-249.898667-195.328-454.101333-441.621333-468.437333A173.674667 173.674667 0 0 0 522.666667 42.666667c-1.365333 0-2.709333 0.128-4.074667 0.170666C516.394667 42.794667 514.218667 42.666667 512 42.666667 252.8 42.666667 42.666667 252.8 42.666667 512s210.133333 469.333333 469.333333 469.333333c2.069333 0 4.117333-0.170667 6.186667-0.192 1.493333 0.042667 2.986667 0.192 4.48 0.192 7.616 0 15.253333-0.448 22.890666-1.344 58.218667-4.074667 117.354667-21.504 167.765334-44.885333-6.613333-4.458667-13.205333-9.322667-19.776-14.528zM64 512C64 298.24 213.802667 119.765333 414.08 75.072 300.373333 144 213.333333 315.306667 213.333333 512c0 50.581333 5.845333 99.434667 16.341334 145.344a3919.04 3919.04 0 0 1-151.872-35.541333A447.893333 447.893333 0 0 1 64 512z m20.693333 133.546667c54.741333 13.717333 104.64 25.344 150.741334 34.837333 32.789333 122.005333 99.136 220.373333 178.666666 268.586667C257.450667 913.984 132.053333 796.992 84.693333 645.546667z" fill="#252B3A" p-id="23499"></path><path d="M766.592 964.010667l-4.032-1.664c-44.074667-18.176-79.253333-44.053333-125.333333-92.544-43.434667-45.546667-66.368-124.16-64.618667-221.461334l0.170667-20.010666 16.768-4.565334c50.901333-13.994667 103.829333-39.402667 171.776-82.24l5.674666-3.584 5.674667 3.562667c63.957333 39.957333 123.050667 67.541333 175.552 82.005333l16.746667 4.544 0.085333 20.501334c1.898667 101.504-18.88 178.026667-60.010667 221.077333-38.698667 40.704-83.968 71.914667-134.272 92.714667l-4.181333 1.664z m-172.693333-319.338667l-0.021334 3.968c-1.664 91.754667 19.2 164.992 58.752 206.506667 42.389333 44.544 74.752 68.906667 113.962667 85.781333 45.909333-19.626667 87.253333-48.512 122.88-85.973333 37.205333-38.954667 55.914667-110.229333 54.122667-206.144l-0.042667-4.352-1.088-0.362667c-52.949333-14.592-111.957333-41.792-175.530667-80.96-67.072 41.92-120.277333 67.093333-171.861333 81.28l-1.173333 0.256z" fill="#F66F6A" p-id="23500"></path><path d="M758.058667 644.842667h21.333333v157.781333h-21.333333zM758.058667 826.794667h21.333333v31.381333h-21.333333z" fill="#F66F6A" p-id="23501"></path></svg>