<?xml version="1.0" standalone="no"?><!DOCTYPE svg PUBLIC "-//W3C//DTD SVG 1.1//EN" "http://www.w3.org/Graphics/SVG/1.1/DTD/svg11.dtd"><svg t="1704185428009" class="icon" viewBox="0 0 1024 1024" version="1.1" xmlns="http://www.w3.org/2000/svg" p-id="6475" xmlns:xlink="http://www.w3.org/1999/xlink" width="12" height="12"><path d="M558.370388 63.462527l330.797851 105.329354A50.945274 50.945274 0 0 1 924.656716 217.337632v442.576875c-43.996338 67.808159-103.337393 130.506507-178.018069 188.10014-74.685771 57.598726-152.896955 100.973532-234.638647 130.134607-116.842985-50.787343-199.491502-94.8601-247.950647-132.228458-48.448955-37.368358-103.352677-99.368756-164.706069-186.006289V217.332537a50.945274 50.945274 0 0 1 35.488477-48.545751l330.797851-105.329353a152.835821 152.835821 0 0 1 92.740776 0zM517.094527 483.9801H145.19403v151.450109c44.261254 75.475423 97.646806 136.130866 160.161751 181.966328C367.865632 863.237095 438.450308 898.139701 517.094527 922.109453V483.9801z m0-387.18408v387.18408h361.711443V217.791045L517.094527 96.79602z" fill="#333333" p-id="6476"></path></svg>