<?xml version="1.0" standalone="no"?><!DOCTYPE svg PUBLIC "-//W3C//DTD SVG 1.1//EN" "http://www.w3.org/Graphics/SVG/1.1/DTD/svg11.dtd"><svg t="1704181849691" class="icon" viewBox="0 0 1024 1024" version="1.1" xmlns="http://www.w3.org/2000/svg" p-id="22197" xmlns:xlink="http://www.w3.org/1999/xlink" width="12" height="12"><path d="M837.2 184.2c-12.3-16.4-29.2-28.1-48.8-33.9l-231-67.8c-29.7-8.7-61.1-8.7-90.9 0l-231 67.8c-19.7 5.8-36.6 17.5-48.8 33.9S168 220.1 168 240.6v372.8c0 20.2 6.3 39.5 18.3 55.8 25.5 34.6 77 101.6 135.4 161.2 77.7 79.2 139.9 117.7 190.3 117.7s112.6-38.5 190.3-117.7c58.5-59.6 109.9-126.5 135.4-161.2 12-16.3 18.3-35.6 18.3-55.8V240.6c0-20.5-6.5-40-18.8-56.4zM808 613.4c0 9.9-3.1 19.4-9 27.3-24.7 33.6-74.6 98.5-131 156C579.8 886.6 532.4 900 512 900s-67.8-13.4-156-103.3c-56.4-57.5-106.3-122.4-131-156-5.9-8-9-17.4-9-27.4V240.6c0-20.3 13.6-38.5 33.1-44.3l231-67.8c20.9-6.1 42.9-6.1 63.8 0l231 67.8c19.5 5.7 33.1 23.9 33.1 44.3v372.8z" fill="#CCCCCC" p-id="22198"></path><path d="M638 378c0-70-57-127-127-127s-127 57-127 127c0 62.5 45.4 114.6 105 125.1V759c0 4.4 3.6 8 8 8h32c4.4 0 8-3.6 8-8V647c0-4.4 3.6-8 8-8h54c4.4 0 8-3.6 8-8v-32c0-4.4-3.6-8-8-8h-54c-4.4 0-8-3.6-8-8v-80.7c57.6-12 101-63.2 101-124.3z m-127 79c-43.6 0-79-35.4-79-79s35.4-79 79-79 79 35.4 79 79-35.4 79-79 79z" fill="#CCCCCC" p-id="22199"></path></svg>