<?xml version="1.0" standalone="no"?><!DOCTYPE svg PUBLIC "-//W3C//DTD SVG 1.1//EN" "http://www.w3.org/Graphics/SVG/1.1/DTD/svg11.dtd"><svg t="1704181814694" class="icon" viewBox="0 0 1024 1024" version="1.1" xmlns="http://www.w3.org/2000/svg" p-id="21111" xmlns:xlink="http://www.w3.org/1999/xlink" width="12" height="12"><path d="M923.5 869L744.9 690.4c22.7-28.1 41-59.1 54.6-92.7 18-44.3 27.1-91 27.1-139s-9.1-94.7-27.1-139c-18.6-45.9-45.9-87-81.2-122.2-35.3-35.3-76.4-62.6-122.2-81.2-44.3-18-91-27.1-139-27.1s-94.7 9.1-139 27.1c-45.9 18.6-87 45.9-122.2 81.2-35.3 35.3-62.6 76.4-81.2 122.2-18 44.3-27.1 91-27.1 139s9.1 94.7 27.1 139c18.6 45.9 45.9 87 81.2 122.2 35.3 35.3 76.4 62.6 122.2 81.2 44.3 18 91 27.1 139 27.1s94.7-9.1 139-27.1c36.5-14.8 70-35.1 99.9-60.6l178 178c13.7 13.7 35.8 13.7 49.5 0 13.6-13.6 13.6-35.8 0-49.5zM245.3 670.5c-56.6-56.6-87.7-131.8-87.7-211.7s31.1-155.2 87.7-211.7c58.4-58.4 135.1-87.6 211.7-87.6s153.4 29.2 211.7 87.6c116.8 116.8 116.8 306.7 0 423.5-116.6 116.6-306.6 116.6-423.4-0.1z" p-id="21112"></path><path d="M639.5 338.5L475.7 491.9 369.2 385.4 226 528.6l49.5 49.5 93.7-93.7 104.9 104.9 213.2-199.7z" p-id="21113"></path></svg>