<?xml version="1.0" standalone="no"?><!DOCTYPE svg PUBLIC "-//W3C//DTD SVG 1.1//EN" "http://www.w3.org/Graphics/SVG/1.1/DTD/svg11.dtd"><svg t="1704181991551" class="icon" viewBox="0 0 1024 1024" version="1.1" xmlns="http://www.w3.org/2000/svg" p-id="29945" xmlns:xlink="http://www.w3.org/1999/xlink" width="12" height="12"><path d="M877.35808 696.4992a23.04 23.04 0 0 1 22.38464-40.27904l29.44 16.36352c37.7856 20.992 50.0992 67.28704 26.49088 102.58432a76.42624 76.42624 0 0 1-26.48576 24.2176l-378.33728 210.23744c-24.7296 13.7472-55.5264 13.7472-80.256 0L92.25728 799.3856c-37.7856-20.992-50.09408-67.28704-26.48576-102.58432a76.42624 76.42624 0 0 1 26.48576-24.21248l29.83424-16.57856a23.04 23.04 0 0 1 22.37952 40.27904l-29.82912 16.57856a30.38208 30.38208 0 0 0-10.56768 9.55392c-8.35072 12.48768-4.08064 28.54912 10.56768 36.68992l378.33216 210.24256c10.81344 6.00576 24.6784 6.00576 35.49184 0l378.33728-210.24256a30.38208 30.38208 0 0 0 10.56768-9.55904c8.35072-12.48768 4.08064-28.54912-10.56768-36.6848l-29.44512-16.36352z m-2.432-219.21792a23.04 23.04 0 0 1 22.37952-40.27904l31.88224 17.7152c37.78048 20.992 50.09408 67.28704 26.48576 102.58432a76.42624 76.42624 0 0 1-26.48576 24.2176l-378.33728 210.23744c-24.7296 13.74208-55.5264 13.74208-80.256 0l-378.33728-210.24256c-37.7856-20.992-50.09408-67.28704-26.48576-102.58432a76.42624 76.42624 0 0 1 26.48576-24.2176l31.98976-17.77152a23.04 23.04 0 1 1 22.38464 40.27904l-31.98976 17.77664a30.38208 30.38208 0 0 0-10.56768 9.55392c-8.35072 12.48768-4.08064 28.54912 10.56768 36.6848l378.33216 210.24256c10.81344 6.01088 24.6784 6.01088 35.49184 0l378.33728-210.24256a30.38208 30.38208 0 0 0 10.56768-9.55392c8.35072-12.48768 4.08064-28.54912-10.56768-36.6848l-31.87712-17.7152z m-350.52544-415.18592a28.16 28.16 0 0 0-27.35616 0L117.32992 273.1008a28.16 28.16 0 0 0 0 49.2288l379.71456 211.01056a28.16 28.16 0 0 0 27.35616 0l379.71456-211.01056a28.16 28.16 0 0 0 0-49.2288l-379.71456-211.00544z m402.0992 170.7264c35.84 19.9168 48.7424 65.11616 28.83072 100.95616a74.24 74.24 0 0 1-28.83072 28.83072l-379.71456 211.01056a74.24 74.24 0 0 1-72.12544 0L94.94528 362.60864c-35.84-19.9168-48.74752-65.11616-28.83072-100.95104a74.24 74.24 0 0 1 28.8256-28.83584L474.66496 21.81632a74.24 74.24 0 0 1 72.12544 0l379.71456 211.00544z" fill="#000000" p-id="29946"></path></svg>