<svg t="1710998083293" class="icon" viewBox="0 0 1024 1024" version="1.1" xmlns="http://www.w3.org/2000/svg" p-id="11405" width="32" height="32"><path d="M683.38086969 207.3043475H804.17391313A158.60869594 158.60869594 0 0 1 962.78260906 365.91304344v459.13043437a158.60869594 158.60869594 0 0 1-158.60869594 158.60869594H219.82608687A158.60869594 158.60869594 0 0 1 61.21739094 825.04347781V365.91304344A158.60869594 158.60869594 0 0 1 219.82608687 207.3043475h116.36869594L273.79478281 89.34956562A33.39130406 33.39130406 0 0 1 332.81391312 58.12869594L411.74260906 207.3043475h196.09043438L686.76173937 58.12869594a33.39130406 33.39130406 0 0 1 59.06086969 31.22086969L683.38086969 207.3043475zM219.82608687 274.08695656A91.82608688 91.82608688 0 0 0 128 365.91304344v459.13043437A91.82608688 91.82608688 0 0 0 219.82608687 916.86956562h584.34782625a91.82608688 91.82608688 0 0 0 91.82608688-91.82608781V365.91304344A91.82608688 91.82608688 0 0 0 804.17391313 274.08695656H219.82608687z" p-id="11406" data-spm-anchor-id="a313x.search_index.0.i17.157d3a81Lu7ZFt" class="selected" fill="#1afa29"></path><path d="M353.39130406 465.37739094v276.89739187a54.26086969 54.26086969 0 0 0 82.18434844 46.53913031l230.73391312-138.44869593a54.26086969 54.26086969 0 0 0 0-93.07826063L435.5756525 418.83826063A54.26086969 54.26086969 0 0 0 353.39130406 465.37739094z m260.66086969 138.44869593L420.17391312 720.15304344v-232.65391313l193.87826063 116.32695657z" p-id="11407" data-spm-anchor-id="a313x.search_index.0.i19.157d3a81Lu7ZFt" class="selected" fill="#1afa29"></path></svg>