<svg t="1710997970793" class="icon" viewBox="0 0 1024 1024" version="1.1" xmlns="http://www.w3.org/2000/svg" p-id="10163" width="32" height="32"><path d="M116.363636 814.545455m46.545455 0l698.205091 0q46.545455 0 46.545454 46.545454l0 0q0 46.545455-46.545454 46.545455l-698.205091 0q-46.545455 0-46.545455-46.545455l0 0q0-46.545455 46.545455-46.545454Z" fill="#1afa29" opacity=".8" p-id="10164" data-spm-anchor-id="a313x.search_index.0.i14.157d3a81Lu7ZFt" class="selected"></path><path d="M256 116.363636h279.272727a93.090909 93.090909 0 0 1 93.090909 93.090909v651.636364a46.545455 46.545455 0 0 1-46.545454 46.545455h-372.363637a46.545455 46.545455 0 0 1-46.545454-46.545455v-651.636364a93.090909 93.090909 0 0 1 93.090909-93.090909z" fill="#1afa29" opacity=".8" p-id="10165" data-spm-anchor-id="a313x.search_index.0.i11.157d3a81Lu7ZFt" class="selected"></path><path d="M279.272727 263.051636m46.545455 0l139.636363 0q46.545455 0 46.545455 46.545455l0 0q0 46.545455-46.545455 46.545454l-139.636363 0q-46.545455 0-46.545455-46.545454l0 0q0-46.545455 46.545455-46.545455Z" fill="#FFFFFF" p-id="10166"></path><path d="M279.272727 437.690182m46.545455 0l139.636363 0q46.545455 0 46.545455 46.545454l0 0q0 46.545455-46.545455 46.545455l-139.636363 0q-46.545455 0-46.545455-46.545455l0 0q0-46.545455 46.545455-46.545454Z" fill="#FFFFFF" p-id="10167"></path><path d="M279.272727 626.129455m46.545455 0l139.636363 0q46.545455 0 46.545455 46.545454l0 0q0 46.545455-46.545455 46.545455l-139.636363 0q-46.545455 0-46.545455-46.545455l0 0q0-46.545455 46.545455-46.545454Z" fill="#FFFFFF" p-id="10168"></path><path d="M768 500.363636m-93.090909 0a93.090909 93.090909 0 1 0 186.181818 0 93.090909 93.090909 0 1 0-186.181818 0Z" fill="#1afa29" opacity=".8" p-id="10169" data-spm-anchor-id="a313x.search_index.0.i13.157d3a81Lu7ZFt" class="selected"></path><path d="M861.114182 593.431273a93.090909 93.090909 0 0 0-93.090909-93.090909 93.090909 93.090909 0 0 0-93.090909 93.090909 92.695273 92.695273 0 0 0 46.545454 80.197818v187.438545a46.545455 46.545455 0 0 0 46.545455 46.545455 46.545455 46.545455 0 0 0 46.545454-46.545455v-187.438545a92.741818 92.741818 0 0 0 46.545455-80.197818z" fill="#1afa29" opacity=".8" p-id="10170" data-spm-anchor-id="a313x.search_index.0.i12.157d3a81Lu7ZFt" class="selected"></path></svg>