<svg t="1711076804622" class="icon" viewBox="0 0 1024 1024" version="1.1" xmlns="http://www.w3.org/2000/svg" p-id="30268" width="18" height="18"><path d="M512 175.542857L607.085714 365.714286l14.628572 36.571428 36.571428 7.314286 212.114286 29.257143-153.6 160.914286-29.257143 29.257142 7.314286 36.571429 36.571428 219.428571-182.857142-102.4-36.571429-14.628571-36.571429 21.942857L292.571429 885.028571l36.571428-219.428571 7.314286-36.571429-29.257143-29.257142L153.6 438.857143 365.714286 409.6l36.571428-7.314286 14.628572-36.571428L512 175.542857M512 0L351.085714 336.457143 0 387.657143l256 263.314286-58.514286 373.028571L512 848.457143l314.514286 175.542857-58.514286-373.028571L1024 387.657143l-351.085714-51.2L512 0z" fill="#bfbfbf" p-id="30269"></path></svg>