<svg t="1711076863764" class="icon" viewBox="0 0 1024 1024" version="1.1" xmlns="http://www.w3.org/2000/svg" p-id="30566" width="18" height="18"><path d="M1021.745656 389.07432c-4.349051-13.047154-15.477506-22.511713-29.03529-24.559349l-308.782645-47.712675L546.036187 21.452591C540.02324 8.66024 527.103999 0.346901 512.905626 0.346901l0 0c-14.19735 0-26.988678 8.18645-33.128515 20.9788l-139.169643 294.584272L31.442106 362.597295c-13.558807 2.047636-24.815175 11.384281-29.16525 24.431435-4.349051 12.919241-1.151219 27.373441 8.442276 37.09485l224.358861 230.755548-53.594639 325.283458c-2.302439 13.814634 3.580548 27.757181 14.96483 35.815717 11.383258 8.058536 26.479071 8.953929 38.757722 2.174526L511.37169 866.190835l275.525194 152.984277c5.628184 2.942005 11.641131 4.476965 17.779945 4.476965l0.76748 0c20.211321 0 36.45426-16.372899 36.45426-36.583197 0-4.476965-0.76748-8.827039-2.302439-12.919241l-51.16531-318.248228 224.873584-229.861178C1022.768963 416.319847 1026.094708 401.99356 1021.745656 389.07432L1021.745656 389.07432z" fill="#d81e06" p-id="30567" data-spm-anchor-id="a313x.search_index.0.i48.157d3a81Lu7ZFt" class="selected"></path></svg>